<?xml version="1.0" encoding="UTF-8"?>
<svg width="38px" height="32px" viewBox="0 0 38 32" version="1.1" xmlns="http://www.w3.org/2000/svg" xmlns:xlink="http://www.w3.org/1999/xlink">
    <!-- Generator: Sketch 48.2 (47327) - http://www.bohemiancoding.com/sketch -->
    <title>chat</title>
    <desc>Created with Sketch.</desc>
    <defs></defs>
    <g id="Page-1" stroke="none" stroke-width="1" fill="none" fill-rule="evenodd">
        <g id="chat" fill="#FFFFFF" fill-rule="nonzero">
            <path d="M30.4056763,18.5862573 L30.4056763,2.83502075 C30.4056763,1.27843983 29.1442656,0.0145062241 27.5851618,0.0145062241 L2.89809129,0.0145062241 C1.34024896,0.0132448133 0.0775767635,1.27717842 0.0775767635,2.83502075 L0.0775767635,18.5862573 C0.0775767635,20.1440996 1.34024896,21.4067718 2.89809129,21.4067718 L7.60189212,21.4067718 L7.60189212,27.886639 L14.7969793,21.4067718 L27.5839004,21.4067718 C29.1442656,21.4067718 30.4056763,20.1440996 30.4056763,18.5862573 Z M35.1019087,6.20677178 L31.5724813,6.20677178 C31.5724813,6.20677178 31.5724813,18.7855602 31.5724813,19.9675021 C31.5724813,21.149444 30.0386058,22.669444 28.8566639,22.669444 C27.674722,22.669444 15.0505228,22.7388216 15.0505228,22.7388216 C15.0505228,24.2966639 16.313195,25.2439834 17.8710373,25.2439834 L23.3064564,25.2439834 L30.3981079,31.6797012 L30.389278,25.2439834 L35.1019087,25.2439834 C36.6610124,25.2439834 37.9224232,24.2966639 37.9224232,22.7388216 L37.9224232,8.94907884 C37.9224232,7.39249793 36.6610124,6.20677178 35.1019087,6.20677178 Z" id="Shape"></path>
        </g>
    </g>
</svg>